<svg xmlns="http://www.w3.org/2000/svg" version="1.1" xmlns:xlink="http://www.w3.org/1999/xlink" width="200" height="200"><svg xmlns="http://www.w3.org/2000/svg" version="1.1" xmlns:xlink="http://www.w3.org/1999/xlink" viewBox="0 0 200 200"><rect width="200" height="200" fill="url('#gradient')"></rect><defs><linearGradient id="SvgjsLinearGradient1001" gradientTransform="rotate(108 0.5 0.5)"><stop offset="0%" stop-color="#353664"></stop><stop offset="100%" stop-color="#211c36"></stop></linearGradient></defs><g><g fill="#51629e" transform="matrix(1.9398298282228288,0,0,1.9398298282228288,40.31953288937748,113.78686549930325)" stroke="#68a2d1" stroke-width="0"><path d="M12.24-14.22L12.24-11.57L7.97-11.57L7.97 0L4.54 0L4.54-11.57L0.35-11.57L0.35-14.22L12.24-14.22ZM25.45-7.47L25.45-6.82Q25.45-4.74 24.68-3.13Q23.91-1.53 22.49-0.67Q21.06 0.20 19.25 0.20Q17.43 0.20 16.03-0.64Q14.62-1.47 13.83-3.03Q13.05-4.58 13.01-6.59L13.01-6.59L13.01-7.39Q13.01-9.48 13.77-11.08Q14.54-12.68 15.97-13.54Q17.40-14.41 19.23-14.41L19.23-14.41Q21.04-14.41 22.45-13.55Q23.87-12.70 24.65-11.11Q25.44-9.52 25.45-7.47L25.45-7.47ZM21.96-6.76L21.96-7.41Q21.96-9.53 21.25-10.63Q20.55-11.73 19.23-11.73L19.23-11.73Q16.65-11.73 16.50-7.86L16.50-7.86L16.49-6.82Q16.49-4.73 17.19-3.60Q17.88-2.48 19.25-2.48L19.25-2.48Q20.55-2.48 21.25-3.58Q21.95-4.69 21.96-6.76L21.96-6.76ZM33.50-7.40L33.50-4.85L27.63-4.85L27.63-7.40L33.50-7.40ZM40.89 0L36.21 0L36.21-14.22L40.79-14.22Q42.68-14.22 44.18-13.36Q45.68-12.51 46.53-10.95Q47.37-9.39 47.38-7.46L47.38-7.46L47.38-6.81Q47.38-4.85 46.56-3.31Q45.73-1.76 44.23-0.88Q42.73-0.01 40.89 0L40.89 0ZM40.79-11.57L39.64-11.57L39.64-2.64L40.83-2.64Q42.30-2.64 43.10-3.69Q43.89-4.74 43.89-6.81L43.89-6.81L43.89-7.42Q43.89-9.48 43.10-10.53Q42.30-11.57 40.79-11.57L40.79-11.57ZM61.18-7.47L61.18-6.82Q61.18-4.74 60.41-3.13Q59.64-1.53 58.22-0.67Q56.80 0.20 54.98 0.20Q53.16 0.20 51.76-0.64Q50.35-1.47 49.57-3.03Q48.78-4.58 48.74-6.59L48.74-6.59L48.74-7.39Q48.74-9.48 49.51-11.08Q50.27-12.68 51.70-13.54Q53.13-14.41 54.96-14.41L54.96-14.41Q56.77-14.41 58.18-13.55Q59.60-12.70 60.39-11.11Q61.17-9.52 61.18-7.47L61.18-7.47ZM57.70-6.76L57.70-7.41Q57.70-9.53 56.99-10.63Q56.28-11.73 54.96-11.73L54.96-11.73Q52.38-11.73 52.24-7.86L52.24-7.86L52.23-6.82Q52.23-4.73 52.92-3.60Q53.61-2.48 54.98-2.48L54.98-2.48Q56.28-2.48 56.98-3.58Q57.69-4.69 57.70-6.76L57.70-6.76Z"></path></g></g></svg><style>@media (prefers-color-scheme: light) { :root { filter: none; } }
@media (prefers-color-scheme: dark) { :root { filter: none; } }
</style></svg>